<svg width="26" height="26" viewBox="0 0 26 26" fill="none" xmlns="http://www.w3.org/2000/svg">
<path d="M10.4926 11.8598C10.7305 11.6875 10.8453 11.4031 10.8453 11.0121C10.8535 10.8262 10.8152 10.643 10.7332 10.4762C10.6594 10.3422 10.55 10.2301 10.416 10.1508C10.2771 10.0665 10.1228 10.0108 9.96211 9.98672C9.78711 9.95391 9.60938 9.9375 9.43438 9.94023H7.51211V12.1195H9.59297C9.95117 12.1223 10.2547 12.0348 10.4926 11.8598V11.8598ZM10.8152 13.8285C10.5473 13.6234 10.1891 13.5223 9.74336 13.5223H7.50664V16.0926H9.69961C9.90469 16.0926 10.0934 16.0734 10.2766 16.0352C10.4499 16.0013 10.6151 15.9344 10.7633 15.8383C10.9027 15.748 11.0148 15.625 11.0996 15.4664C11.1816 15.3078 11.2227 15.1055 11.2227 14.8621C11.2227 14.3781 11.0859 14.0363 10.8152 13.8285V13.8285ZM13 0.75C6.23516 0.75 0.75 6.23516 0.75 13C0.75 19.7648 6.23516 25.25 13 25.25C19.7648 25.25 25.25 19.7648 25.25 13C25.25 6.23516 19.7648 0.75 13 0.75ZM15.3652 8.59492H19.1496V9.51641H15.3652V8.59492ZM13 16.1937C12.823 16.5297 12.5702 16.82 12.2617 17.0414C11.9391 17.2656 11.5809 17.4297 11.2008 17.5254C10.8031 17.6319 10.3929 17.6844 9.98125 17.6813H5.45312V8.3543H9.85547C10.3012 8.3543 10.7059 8.39531 11.075 8.47187C11.4414 8.54844 11.7531 8.67969 12.0156 8.85742C12.2754 9.03516 12.4805 9.27305 12.6254 9.56836C12.7676 9.86094 12.8414 10.2273 12.8414 10.6621C12.8414 11.1324 12.7348 11.5207 12.5215 11.8352C12.3055 12.1496 11.9938 12.4039 11.5699 12.6035C12.1469 12.7676 12.5707 13.0602 12.8496 13.4703C13.134 13.8859 13.2734 14.3836 13.2734 14.9688C13.2734 15.4445 13.1832 15.852 13 16.1937ZM20.6234 14.75H15.7453C15.7453 15.2805 15.9285 15.7891 16.2047 16.0625C16.4836 16.3332 16.8828 16.4699 17.4051 16.4699C17.7824 16.4699 18.1023 16.3742 18.3758 16.1855C18.6465 15.9969 18.8105 15.7973 18.8707 15.5895H20.5059C20.2434 16.4016 19.8441 16.9813 19.3027 17.3313C18.7668 17.6813 18.1105 17.8562 17.3477 17.8562C16.8145 17.8562 16.3359 17.7687 15.9066 17.602C15.4937 17.4406 15.1219 17.1945 14.8156 16.8773C14.5137 16.5516 14.2803 16.1685 14.1293 15.7508C13.9625 15.2887 13.8805 14.802 13.8859 14.3125C13.8859 13.8066 13.9707 13.3363 14.1348 12.8988C14.4492 12.0484 15.1027 11.3676 15.9367 11.0148C16.3824 10.8289 16.8609 10.7359 17.3449 10.7414C17.9191 10.7414 18.4168 10.8508 18.8488 11.075C19.2647 11.2891 19.6259 11.596 19.9043 11.9719C20.1805 12.3465 20.3746 12.773 20.4977 13.2543C20.6152 13.7273 20.6562 14.225 20.6234 14.75V14.75ZM17.2875 12.1359C16.9922 12.1359 16.7434 12.1879 16.552 12.2891C16.3605 12.3902 16.202 12.516 16.0816 12.6609C15.9671 12.8009 15.8824 12.9628 15.8328 13.1367C15.7891 13.2816 15.759 13.4293 15.748 13.5797H18.7695C18.7258 13.1066 18.5617 12.7566 18.343 12.5105C18.1133 12.2672 17.7441 12.1359 17.2875 12.1359V12.1359Z" fill="#0057FF"/>
</svg>
